<svg viewBox="0 0 980 770" xmlns="http://www.w3.org/2000/svg" font-family="ui-sans-serif, system-ui, -apple-system, sans-serif">
  <title>Conexiones del nodo tanque (maestro), GND del nRF24 corregido</title>
  <rect x="0" y="0" width="980" height="770" fill="#ffffff"/>
  <text x="30" y="34" font-size="22" font-weight="700" fill="#2C2C2A">Nodo Tanque (maestro) — conexiones</text>
  <text x="30" y="56" font-size="13" fill="#5F5E5A">ESP32 · nRF24L01 (via AMS1117) · JSN-SR04T (ECHO con divisor 100Ω / 180Ω)</text>

  <rect x="60" y="110" width="190" height="470" rx="10" fill="#fff" stroke="#888780" stroke-width="2"/>
  <rect x="60" y="110" width="190" height="34" rx="10" fill="#D4537E"/>
  <text x="155" y="133" font-size="15" font-weight="700" fill="#fff" text-anchor="middle">ESP32</text>
  <text x="155" y="566" font-size="11" fill="#5F5E5A" text-anchor="middle">(USB = alimentación)</text>
  <g font-size="12" fill="#2C2C2A" text-anchor="end">
    <line x1="236" y1="172" x2="250" y2="172" stroke="#7F77DD" stroke-width="2"/><text x="230" y="176">G18 · SCK</text>
    <line x1="236" y1="206" x2="250" y2="206" stroke="#1D9E75" stroke-width="2"/><text x="230" y="210">G19 · MISO</text>
    <line x1="236" y1="240" x2="250" y2="240" stroke="#D4537E" stroke-width="2"/><text x="230" y="244">G23 · MOSI</text>
    <line x1="236" y1="274" x2="250" y2="274" stroke="#97C459" stroke-width="2"/><text x="230" y="278">G4 · CE</text>
    <line x1="236" y1="308" x2="250" y2="308" stroke="#378ADD" stroke-width="2"/><text x="230" y="312">G5 · CSN</text>
    <line x1="236" y1="350" x2="250" y2="350" stroke="#E24B4A" stroke-width="3"/><text x="230" y="354" font-weight="700" fill="#E24B4A">5V (VIN)</text>
    <line x1="236" y1="388" x2="250" y2="388" stroke="#2C2C2A" stroke-width="3"/><text x="230" y="392" font-weight="700">GND</text>
    <line x1="236" y1="430" x2="250" y2="430" stroke="#185FA5" stroke-width="2"/><text x="230" y="434">G26 · TRIG</text>
    <line x1="236" y1="468" x2="250" y2="468" stroke="#639922" stroke-width="2"/><text x="230" y="472">G25 · ECHO</text>
  </g>

  <rect x="640" y="110" width="200" height="252" rx="10" fill="#fff" stroke="#888780" stroke-width="2"/>
  <rect x="640" y="110" width="200" height="30" rx="10" fill="#7F77DD"/>
  <text x="740" y="131" font-size="13" font-weight="700" fill="#fff" text-anchor="middle">nRF24L01 (radio)</text>
  <g font-size="12" fill="#2C2C2A">
    <line x1="640" y1="160" x2="626" y2="160" stroke="#97C459" stroke-width="2"/><text x="650" y="164">CE</text>
    <line x1="640" y1="184" x2="626" y2="184" stroke="#378ADD" stroke-width="2"/><text x="650" y="188">CSN</text>
    <line x1="640" y1="208" x2="626" y2="208" stroke="#7F77DD" stroke-width="2"/><text x="650" y="212">SCK</text>
    <line x1="640" y1="232" x2="626" y2="232" stroke="#D4537E" stroke-width="2"/><text x="650" y="236">MOSI</text>
    <line x1="640" y1="256" x2="626" y2="256" stroke="#1D9E75" stroke-width="2"/><text x="650" y="260">MISO</text>
    <line x1="640" y1="280" x2="626" y2="280" stroke="#EF9F27" stroke-width="3"/><text x="650" y="283" font-size="11" font-weight="700" fill="#BA7517">VCC 3.3V</text>
    <line x1="640" y1="306" x2="626" y2="306" stroke="#2C2C2A" stroke-width="3"/><text x="650" y="310" font-weight="700">GND ← al común</text>
    <line x1="640" y1="332" x2="626" y2="332" stroke="#B4B2A9" stroke-width="2" stroke-dasharray="3 3"/><text x="650" y="336" fill="#888780">IRQ (libre, NO se conecta)</text>
  </g>

  <rect x="400" y="378" width="130" height="60" rx="8" fill="#fff" stroke="#EF9F27" stroke-width="2"/>
  <text x="465" y="400" font-size="12.5" font-weight="700" fill="#2C2C2A" text-anchor="middle">AMS1117</text>
  <text x="465" y="415" font-size="10" fill="#5F5E5A" text-anchor="middle">5V → 3.3V</text>
  <text x="408" y="432" font-size="9.5" fill="#E24B4A">IN</text>
  <text x="522" y="394" font-size="9.5" fill="#BA7517" text-anchor="end">OUT</text>

  <rect x="640" y="440" width="200" height="150" rx="10" fill="#fff" stroke="#888780" stroke-width="2"/>
  <rect x="640" y="440" width="200" height="30" rx="10" fill="#1D9E75"/>
  <text x="740" y="461" font-size="13" font-weight="700" fill="#fff" text-anchor="middle">JSN-SR04T (5V)</text>
  <g font-size="12" fill="#2C2C2A">
    <line x1="640" y1="490" x2="626" y2="490" stroke="#E24B4A" stroke-width="3"/><text x="650" y="494" font-weight="700" fill="#E24B4A">VCC 5V</text>
    <line x1="640" y1="518" x2="626" y2="518" stroke="#185FA5" stroke-width="2"/><text x="650" y="522">TRIG</text>
    <line x1="640" y1="546" x2="626" y2="546" stroke="#639922" stroke-width="2"/><text x="650" y="550">ECHO (5V!)</text>
    <line x1="640" y1="574" x2="626" y2="574" stroke="#2C2C2A" stroke-width="3"/><text x="650" y="578" font-weight="700">GND</text>
  </g>

  <path d="M250,172 L640,208" fill="none" stroke="#7F77DD" stroke-width="2"/>
  <path d="M250,206 L640,256" fill="none" stroke="#1D9E75" stroke-width="2"/>
  <path d="M250,240 L640,232" fill="none" stroke="#D4537E" stroke-width="2"/>
  <path d="M250,274 L640,160" fill="none" stroke="#97C459" stroke-width="2"/>
  <path d="M250,308 L640,184" fill="none" stroke="#378ADD" stroke-width="2"/>

  <path d="M250,350 L390,350 L400,408" fill="none" stroke="#E24B4A" stroke-width="3"/>
  <path d="M360,350 L360,490 L640,490" fill="none" stroke="#E24B4A" stroke-width="3"/>
  <circle cx="360" cy="350" r="3.5" fill="#E24B4A"/>

  <path d="M530,388 L578,388 L578,280 L640,280" fill="none" stroke="#EF9F27" stroke-width="3"/>

  <path d="M250,388 L300,388" fill="none" stroke="#2C2C2A" stroke-width="3"/>
  <path d="M300,306 L300,574" fill="none" stroke="#2C2C2A" stroke-width="3"/>
  <path d="M300,306 L626,306" fill="none" stroke="#2C2C2A" stroke-width="2"/>
  <path d="M300,428 L400,428" fill="none" stroke="#2C2C2A" stroke-width="2"/>
  <path d="M300,574 L640,574" fill="none" stroke="#2C2C2A" stroke-width="3"/>
  <circle cx="300" cy="388" r="3.5" fill="#2C2C2A"/>
  <circle cx="300" cy="306" r="4" fill="#2C2C2A"/>
  <circle cx="300" cy="428" r="3" fill="#2C2C2A"/>
  <circle cx="300" cy="574" r="3.5" fill="#2C2C2A"/>

  <path d="M250,430 L420,430 L420,518 L640,518" fill="none" stroke="#185FA5" stroke-width="2"/>

  <path d="M640,546 L560,546" fill="none" stroke="#639922" stroke-width="2"/>
  <rect x="505" y="538" width="55" height="16" rx="3" fill="#FAEEDA" stroke="#BA7517" stroke-width="1.5"/>
  <text x="532" y="550" font-size="9.5" font-weight="700" fill="#854F0B" text-anchor="middle">R1 100Ω</text>
  <path d="M505,546 L470,546" fill="none" stroke="#639922" stroke-width="2"/>
  <circle cx="470" cy="546" r="3.5" fill="#639922"/>
  <path d="M470,546 L470,468 L250,468" fill="none" stroke="#639922" stroke-width="2"/>
  <path d="M470,546 L470,600" fill="none" stroke="#639922" stroke-width="2"/>
  <rect x="443" y="600" width="55" height="16" rx="3" fill="#FAEEDA" stroke="#BA7517" stroke-width="1.5"/>
  <text x="470" y="612" font-size="9.5" font-weight="700" fill="#854F0B" text-anchor="middle">R2 180Ω</text>
  <path d="M470,616 L470,634 L300,634 L300,574" fill="none" stroke="#2C2C2A" stroke-width="2"/>

  <rect x="535" y="612" width="415" height="140" rx="10" fill="#FAEEDA" stroke="#BA7517" stroke-width="2"/>
  <text x="552" y="634" font-size="12.5" font-weight="700" fill="#854F0B">Detalle del divisor (armalo asi)</text>
  <text x="560" y="680" font-size="11" font-weight="700" fill="#639922">ECHO</text>
  <line x1="595" y1="676" x2="630" y2="676" stroke="#639922" stroke-width="2"/>
  <rect x="630" y="668" width="46" height="16" rx="3" fill="#fff" stroke="#854F0B" stroke-width="1.5"/>
  <text x="653" y="680" font-size="9.5" font-weight="700" fill="#854F0B" text-anchor="middle">100Ω</text>
  <line x1="676" y1="676" x2="715" y2="676" stroke="#639922" stroke-width="2"/>
  <circle cx="715" cy="676" r="4" fill="#639922"/>
  <text x="715" y="664" font-size="10" font-weight="700" fill="#185FA5" text-anchor="middle">a G25</text>
  <line x1="715" y1="676" x2="715" y2="702" stroke="#639922" stroke-width="2"/>
  <rect x="692" y="702" width="46" height="16" rx="3" fill="#fff" stroke="#854F0B" stroke-width="1.5"/>
  <text x="715" y="714" font-size="9.5" font-weight="700" fill="#854F0B" text-anchor="middle">180Ω</text>
  <line x1="715" y1="718" x2="715" y2="734" stroke="#2C2C2A" stroke-width="2"/>
  <text x="715" y="746" font-size="10" font-weight="700" fill="#2C2C2A" text-anchor="middle">GND</text>
  <text x="770" y="670" font-size="10.5" fill="#854F0B">- 100Ω: del ECHO al nodo</text>
  <text x="770" y="686" font-size="10.5" fill="#854F0B">- 180Ω: del nodo a GND</text>
  <text x="770" y="702" font-size="10.5" fill="#854F0B">- El nodo (medio) va a G25</text>
  <text x="770" y="722" font-size="10.5" font-weight="700" fill="#854F0B">Resultado: ~3.2V</text>

  <text x="60" y="618" font-size="12" font-weight="700" fill="#2C2C2A">Cables</text>
  <g font-size="11" fill="#5F5E5A">
    <line x1="60" y1="636" x2="84" y2="636" stroke="#E24B4A" stroke-width="3"/><text x="90" y="640">5V</text>
    <line x1="150" y1="636" x2="174" y2="636" stroke="#2C2C2A" stroke-width="3"/><text x="180" y="640">GND</text>
    <line x1="250" y1="636" x2="274" y2="636" stroke="#EF9F27" stroke-width="3"/><text x="280" y="640">3.3V</text>
    <line x1="350" y1="636" x2="374" y2="636" stroke="#7F77DD" stroke-width="3"/><text x="380" y="640">SPI</text>
    <line x1="60" y1="658" x2="84" y2="658" stroke="#185FA5" stroke-width="3"/><text x="90" y="662">TRIG</text>
    <line x1="150" y1="658" x2="174" y2="658" stroke="#639922" stroke-width="3"/><text x="180" y="662">ECHO (con divisor)</text>
  </g>
</svg>
